<mxfile host="app.diagrams.net" modified="2023-05-28T15:21:32.027Z" agent="Mozilla/5.0 (Windows NT 10.0; Win64; x64) AppleWebKit/537.36 (KHTML, like Gecko) Chrome/113.0.0.0 Safari/537.36" etag="g4rcAOenp0JfZnTseccB" version="21.3.4" type="device">
  <diagram name="Page-1" id="GImbFSqEQbvlf2VdkpRZ">
    <mxGraphModel dx="1300" dy="812" grid="1" gridSize="10" guides="1" tooltips="1" connect="1" arrows="1" fold="1" page="1" pageScale="1" pageWidth="827" pageHeight="1169" math="0" shadow="0">
      <root>
        <mxCell id="0" />
        <mxCell id="1" parent="0" />
        <mxCell id="L44NWS8px62YiaxfykBU-1" value="" style="ellipse;html=1;shape=startState;fillColor=#000000;strokeColor=#ff0000;" vertex="1" parent="1">
          <mxGeometry x="206" y="7" width="30" height="30" as="geometry" />
        </mxCell>
        <mxCell id="L44NWS8px62YiaxfykBU-2" value="" style="edgeStyle=orthogonalEdgeStyle;html=1;verticalAlign=bottom;endArrow=open;endSize=8;strokeColor=#ff0000;rounded=0;" edge="1" source="L44NWS8px62YiaxfykBU-1" parent="1">
          <mxGeometry relative="1" as="geometry">
            <mxPoint x="221" y="97" as="targetPoint" />
          </mxGeometry>
        </mxCell>
        <mxCell id="L44NWS8px62YiaxfykBU-3" value="Go to the online teacher trainer" style="rounded=1;whiteSpace=wrap;html=1;arcSize=40;fontColor=#000000;fillColor=#ffffc0;strokeColor=#ff0000;" vertex="1" parent="1">
          <mxGeometry x="161" y="97" width="120" height="40" as="geometry" />
        </mxCell>
        <mxCell id="L44NWS8px62YiaxfykBU-4" value="" style="edgeStyle=orthogonalEdgeStyle;html=1;verticalAlign=bottom;endArrow=open;endSize=8;strokeColor=#ff0000;rounded=0;" edge="1" source="L44NWS8px62YiaxfykBU-3" parent="1">
          <mxGeometry relative="1" as="geometry">
            <mxPoint x="221" y="197" as="targetPoint" />
          </mxGeometry>
        </mxCell>
        <mxCell id="L44NWS8px62YiaxfykBU-5" value="Select sign-in as Trainee Teacher or Lecturer" style="rounded=1;whiteSpace=wrap;html=1;arcSize=40;fontColor=#000000;fillColor=#ffffc0;strokeColor=#ff0000;" vertex="1" parent="1">
          <mxGeometry x="161" y="197" width="120" height="40" as="geometry" />
        </mxCell>
        <mxCell id="L44NWS8px62YiaxfykBU-6" value="" style="edgeStyle=orthogonalEdgeStyle;html=1;verticalAlign=bottom;endArrow=open;endSize=8;strokeColor=#ff0000;rounded=0;" edge="1" source="L44NWS8px62YiaxfykBU-5" parent="1">
          <mxGeometry relative="1" as="geometry">
            <mxPoint x="221" y="297" as="targetPoint" />
          </mxGeometry>
        </mxCell>
        <mxCell id="L44NWS8px62YiaxfykBU-9" value="" style="shape=line;html=1;strokeWidth=6;strokeColor=#ff0000;" vertex="1" parent="1">
          <mxGeometry x="70" y="400" width="300" height="10" as="geometry" />
        </mxCell>
        <mxCell id="L44NWS8px62YiaxfykBU-10" value="" style="edgeStyle=orthogonalEdgeStyle;html=1;verticalAlign=bottom;endArrow=open;endSize=8;strokeColor=#ff0000;rounded=0;" edge="1" parent="1">
          <mxGeometry relative="1" as="geometry">
            <mxPoint x="221" y="480" as="targetPoint" />
            <mxPoint x="221" y="410" as="sourcePoint" />
            <Array as="points">
              <mxPoint x="221" y="480" />
            </Array>
          </mxGeometry>
        </mxCell>
        <mxCell id="L44NWS8px62YiaxfykBU-13" value="" style="edgeStyle=orthogonalEdgeStyle;html=1;verticalAlign=bottom;endArrow=open;endSize=8;strokeColor=#ff0000;rounded=0;exitX=0.063;exitY=0.6;exitDx=0;exitDy=0;exitPerimeter=0;" edge="1" parent="1" source="L44NWS8px62YiaxfykBU-9">
          <mxGeometry relative="1" as="geometry">
            <mxPoint x="89" y="480" as="targetPoint" />
            <mxPoint x="89" y="412" as="sourcePoint" />
          </mxGeometry>
        </mxCell>
        <mxCell id="L44NWS8px62YiaxfykBU-14" value="" style="edgeStyle=orthogonalEdgeStyle;html=1;verticalAlign=bottom;endArrow=open;endSize=8;strokeColor=#ff0000;rounded=0;" edge="1" parent="1">
          <mxGeometry relative="1" as="geometry">
            <mxPoint x="347" y="480" as="targetPoint" />
            <mxPoint x="350" y="406" as="sourcePoint" />
            <Array as="points">
              <mxPoint x="347" y="406" />
            </Array>
          </mxGeometry>
        </mxCell>
        <mxCell id="L44NWS8px62YiaxfykBU-15" value="Enter Email" style="rounded=1;whiteSpace=wrap;html=1;arcSize=40;fontColor=#000000;fillColor=#ffffc0;strokeColor=#ff0000;" vertex="1" parent="1">
          <mxGeometry x="29" y="483" width="120" height="40" as="geometry" />
        </mxCell>
        <mxCell id="L44NWS8px62YiaxfykBU-16" value="" style="edgeStyle=orthogonalEdgeStyle;html=1;verticalAlign=bottom;endArrow=open;endSize=8;strokeColor=#ff0000;rounded=0;" edge="1" source="L44NWS8px62YiaxfykBU-15" parent="1">
          <mxGeometry relative="1" as="geometry">
            <mxPoint x="89" y="578" as="targetPoint" />
          </mxGeometry>
        </mxCell>
        <mxCell id="L44NWS8px62YiaxfykBU-17" value="Enter Password" style="rounded=1;whiteSpace=wrap;html=1;arcSize=40;fontColor=#000000;fillColor=#ffffc0;strokeColor=#ff0000;" vertex="1" parent="1">
          <mxGeometry x="161" y="482" width="120" height="40" as="geometry" />
        </mxCell>
        <mxCell id="L44NWS8px62YiaxfykBU-18" value="" style="edgeStyle=orthogonalEdgeStyle;html=1;verticalAlign=bottom;endArrow=open;endSize=8;strokeColor=#ff0000;rounded=0;" edge="1" source="L44NWS8px62YiaxfykBU-17" parent="1">
          <mxGeometry relative="1" as="geometry">
            <mxPoint x="221" y="582" as="targetPoint" />
          </mxGeometry>
        </mxCell>
        <mxCell id="L44NWS8px62YiaxfykBU-20" value="Enter Confirmation&lt;br&gt;Password" style="rounded=1;whiteSpace=wrap;html=1;arcSize=40;fontColor=#000000;fillColor=#ffffc0;strokeColor=#ff0000;" vertex="1" parent="1">
          <mxGeometry x="290" y="482" width="120" height="40" as="geometry" />
        </mxCell>
        <mxCell id="L44NWS8px62YiaxfykBU-21" value="" style="edgeStyle=orthogonalEdgeStyle;html=1;verticalAlign=bottom;endArrow=open;endSize=8;strokeColor=#ff0000;rounded=0;" edge="1" source="L44NWS8px62YiaxfykBU-20" parent="1">
          <mxGeometry relative="1" as="geometry">
            <mxPoint x="350" y="582" as="targetPoint" />
          </mxGeometry>
        </mxCell>
        <mxCell id="L44NWS8px62YiaxfykBU-22" value="" style="shape=line;html=1;strokeWidth=6;strokeColor=#ff0000;" vertex="1" parent="1">
          <mxGeometry x="70" y="586" width="300" height="10" as="geometry" />
        </mxCell>
        <mxCell id="L44NWS8px62YiaxfykBU-23" value="" style="edgeStyle=orthogonalEdgeStyle;html=1;verticalAlign=bottom;endArrow=open;endSize=8;strokeColor=#ff0000;rounded=0;" edge="1" parent="1">
          <mxGeometry relative="1" as="geometry">
            <mxPoint x="297" y="660" as="targetPoint" />
            <mxPoint x="297" y="596" as="sourcePoint" />
          </mxGeometry>
        </mxCell>
        <mxCell id="L44NWS8px62YiaxfykBU-24" value="Check if the email is valid" style="rounded=1;whiteSpace=wrap;html=1;arcSize=40;fontColor=#000000;fillColor=#ffffc0;strokeColor=#ff0000;" vertex="1" parent="1">
          <mxGeometry x="80" y="662" width="120" height="40" as="geometry" />
        </mxCell>
        <mxCell id="L44NWS8px62YiaxfykBU-25" value="" style="edgeStyle=orthogonalEdgeStyle;html=1;verticalAlign=bottom;endArrow=open;endSize=8;strokeColor=#ff0000;rounded=0;" edge="1" source="L44NWS8px62YiaxfykBU-24" parent="1">
          <mxGeometry relative="1" as="geometry">
            <mxPoint x="140" y="762" as="targetPoint" />
          </mxGeometry>
        </mxCell>
        <mxCell id="L44NWS8px62YiaxfykBU-26" value="Check if the password is valid" style="rounded=1;whiteSpace=wrap;html=1;arcSize=40;fontColor=#000000;fillColor=#ffffc0;strokeColor=#ff0000;" vertex="1" parent="1">
          <mxGeometry x="236" y="662" width="120" height="40" as="geometry" />
        </mxCell>
        <mxCell id="L44NWS8px62YiaxfykBU-27" value="" style="edgeStyle=orthogonalEdgeStyle;html=1;verticalAlign=bottom;endArrow=open;endSize=8;strokeColor=#ff0000;rounded=0;" edge="1" source="L44NWS8px62YiaxfykBU-26" parent="1">
          <mxGeometry relative="1" as="geometry">
            <mxPoint x="296" y="762" as="targetPoint" />
          </mxGeometry>
        </mxCell>
        <mxCell id="L44NWS8px62YiaxfykBU-28" value="" style="edgeStyle=orthogonalEdgeStyle;html=1;verticalAlign=bottom;endArrow=open;endSize=8;strokeColor=#ff0000;rounded=0;" edge="1" parent="1">
          <mxGeometry relative="1" as="geometry">
            <mxPoint x="138" y="660" as="targetPoint" />
            <mxPoint x="140" y="590" as="sourcePoint" />
            <Array as="points">
              <mxPoint x="138" y="590" />
            </Array>
          </mxGeometry>
        </mxCell>
        <mxCell id="L44NWS8px62YiaxfykBU-29" value="" style="shape=line;html=1;strokeWidth=6;strokeColor=#ff0000;" vertex="1" parent="1">
          <mxGeometry x="70" y="770" width="300" height="10" as="geometry" />
        </mxCell>
        <mxCell id="L44NWS8px62YiaxfykBU-30" value="" style="edgeStyle=orthogonalEdgeStyle;html=1;verticalAlign=bottom;endArrow=open;endSize=8;strokeColor=#ff0000;rounded=0;" edge="1" source="L44NWS8px62YiaxfykBU-29" parent="1">
          <mxGeometry relative="1" as="geometry">
            <mxPoint x="220" y="850" as="targetPoint" />
          </mxGeometry>
        </mxCell>
        <mxCell id="L44NWS8px62YiaxfykBU-31" value="" style="rhombus;whiteSpace=wrap;html=1;fontColor=#000000;fillColor=#ffffc0;strokeColor=#ff0000;" vertex="1" parent="1">
          <mxGeometry x="181" y="860" width="80" height="40" as="geometry" />
        </mxCell>
        <mxCell id="L44NWS8px62YiaxfykBU-32" value="[Invalid]" style="edgeStyle=orthogonalEdgeStyle;html=1;align=left;verticalAlign=bottom;endArrow=open;endSize=8;strokeColor=#ff0000;rounded=0;entryX=0.5;entryY=1;entryDx=0;entryDy=0;" edge="1" source="L44NWS8px62YiaxfykBU-31" parent="1" target="L44NWS8px62YiaxfykBU-35">
          <mxGeometry x="-1" relative="1" as="geometry">
            <mxPoint x="470" y="710" as="targetPoint" />
            <Array as="points">
              <mxPoint x="489" y="880" />
              <mxPoint x="489" y="700" />
              <mxPoint x="490" y="700" />
            </Array>
          </mxGeometry>
        </mxCell>
        <mxCell id="L44NWS8px62YiaxfykBU-33" value="[Valid]" style="edgeStyle=orthogonalEdgeStyle;html=1;align=left;verticalAlign=top;endArrow=open;endSize=8;strokeColor=#ff0000;rounded=0;" edge="1" source="L44NWS8px62YiaxfykBU-31" parent="1">
          <mxGeometry x="-1" relative="1" as="geometry">
            <mxPoint x="220" y="960" as="targetPoint" />
          </mxGeometry>
        </mxCell>
        <mxCell id="L44NWS8px62YiaxfykBU-35" value="Send a message Email/password is invalid&amp;nbsp;" style="rounded=1;whiteSpace=wrap;html=1;arcSize=40;fontColor=#000000;fillColor=#ffffc0;strokeColor=#ff0000;" vertex="1" parent="1">
          <mxGeometry x="414" y="580" width="150" height="40" as="geometry" />
        </mxCell>
        <mxCell id="L44NWS8px62YiaxfykBU-36" value="" style="edgeStyle=orthogonalEdgeStyle;html=1;verticalAlign=bottom;endArrow=open;endSize=8;strokeColor=#ff0000;rounded=0;entryX=1;entryY=0.5;entryDx=0;entryDy=0;" edge="1" source="L44NWS8px62YiaxfykBU-35" parent="1" target="L44NWS8px62YiaxfykBU-37">
          <mxGeometry relative="1" as="geometry">
            <mxPoint x="555" y="530" as="targetPoint" />
            <Array as="points">
              <mxPoint x="490" y="320" />
            </Array>
          </mxGeometry>
        </mxCell>
        <mxCell id="L44NWS8px62YiaxfykBU-37" value="Fill the form" style="rounded=1;whiteSpace=wrap;html=1;arcSize=40;fontColor=#000000;fillColor=#ffffc0;strokeColor=#ff0000;" vertex="1" parent="1">
          <mxGeometry x="160" y="300" width="120" height="40" as="geometry" />
        </mxCell>
        <mxCell id="L44NWS8px62YiaxfykBU-38" value="" style="edgeStyle=orthogonalEdgeStyle;html=1;verticalAlign=bottom;endArrow=open;endSize=8;strokeColor=#ff0000;rounded=0;" edge="1" source="L44NWS8px62YiaxfykBU-37" parent="1">
          <mxGeometry relative="1" as="geometry">
            <mxPoint x="220" y="400" as="targetPoint" />
          </mxGeometry>
        </mxCell>
        <mxCell id="L44NWS8px62YiaxfykBU-39" value="Check form details" style="rounded=1;whiteSpace=wrap;html=1;arcSize=40;fontColor=#000000;fillColor=#ffffc0;strokeColor=#ff0000;" vertex="1" parent="1">
          <mxGeometry x="160" y="970" width="120" height="40" as="geometry" />
        </mxCell>
        <mxCell id="L44NWS8px62YiaxfykBU-40" value="" style="edgeStyle=orthogonalEdgeStyle;html=1;verticalAlign=bottom;endArrow=open;endSize=8;strokeColor=#ff0000;rounded=0;" edge="1" source="L44NWS8px62YiaxfykBU-39" parent="1">
          <mxGeometry relative="1" as="geometry">
            <mxPoint x="220" y="1070" as="targetPoint" />
          </mxGeometry>
        </mxCell>
        <mxCell id="L44NWS8px62YiaxfykBU-41" value="" style="rhombus;whiteSpace=wrap;html=1;fontColor=#000000;fillColor=#ffffc0;strokeColor=#ff0000;" vertex="1" parent="1">
          <mxGeometry x="181" y="1072" width="80" height="40" as="geometry" />
        </mxCell>
        <mxCell id="L44NWS8px62YiaxfykBU-42" value="[Invalid]" style="edgeStyle=orthogonalEdgeStyle;html=1;align=left;verticalAlign=bottom;endArrow=open;endSize=8;strokeColor=#ff0000;rounded=0;entryX=0.5;entryY=1;entryDx=0;entryDy=0;" edge="1" source="L44NWS8px62YiaxfykBU-41" parent="1" target="L44NWS8px62YiaxfykBU-44">
          <mxGeometry x="-0.8834" y="-2" relative="1" as="geometry">
            <mxPoint x="361" y="1092" as="targetPoint" />
            <Array as="points">
              <mxPoint x="-43" y="1092" />
            </Array>
            <mxPoint as="offset" />
          </mxGeometry>
        </mxCell>
        <mxCell id="L44NWS8px62YiaxfykBU-43" value="[Valid]" style="edgeStyle=orthogonalEdgeStyle;html=1;align=left;verticalAlign=top;endArrow=open;endSize=8;strokeColor=#ff0000;rounded=0;" edge="1" source="L44NWS8px62YiaxfykBU-41" parent="1">
          <mxGeometry x="-1" relative="1" as="geometry">
            <mxPoint x="221" y="1172" as="targetPoint" />
          </mxGeometry>
        </mxCell>
        <mxCell id="L44NWS8px62YiaxfykBU-44" value="Send a email&amp;nbsp; form details&amp;nbsp; are invalid&amp;nbsp;" style="rounded=1;whiteSpace=wrap;html=1;arcSize=40;fontColor=#000000;fillColor=#ffffc0;strokeColor=#ff0000;" vertex="1" parent="1">
          <mxGeometry x="-118" y="573" width="150" height="40" as="geometry" />
        </mxCell>
        <mxCell id="L44NWS8px62YiaxfykBU-45" value="" style="edgeStyle=orthogonalEdgeStyle;html=1;verticalAlign=bottom;endArrow=open;endSize=8;strokeColor=#ff0000;rounded=0;exitX=0.5;exitY=0;exitDx=0;exitDy=0;entryX=0;entryY=0.5;entryDx=0;entryDy=0;" edge="1" parent="1" source="L44NWS8px62YiaxfykBU-44" target="L44NWS8px62YiaxfykBU-5">
          <mxGeometry relative="1" as="geometry">
            <mxPoint x="-20" y="410" as="targetPoint" />
          </mxGeometry>
        </mxCell>
        <mxCell id="L44NWS8px62YiaxfykBU-46" value="Add to Registered users" style="rounded=1;whiteSpace=wrap;html=1;arcSize=40;fontColor=#000000;fillColor=#ffffc0;strokeColor=#ff0000;" vertex="1" parent="1">
          <mxGeometry x="160" y="1169" width="120" height="40" as="geometry" />
        </mxCell>
        <mxCell id="L44NWS8px62YiaxfykBU-47" value="" style="edgeStyle=orthogonalEdgeStyle;html=1;verticalAlign=bottom;endArrow=open;endSize=8;strokeColor=#ff0000;rounded=0;" edge="1" source="L44NWS8px62YiaxfykBU-46" parent="1">
          <mxGeometry relative="1" as="geometry">
            <mxPoint x="220" y="1269" as="targetPoint" />
          </mxGeometry>
        </mxCell>
      </root>
    </mxGraphModel>
  </diagram>
</mxfile>
